<?xml version="1.0" standalone="no"?>
<!DOCTYPE svg PUBLIC "-//W3C//DTD SVG 20010904//EN"
 "http://www.w3.org/TR/2001/REC-SVG-20010904/DTD/svg10.dtd">
<svg version="1.0" xmlns="http://www.w3.org/2000/svg"
 width="604.000000pt" height="604.000000pt" viewBox="0 0 604.000000 604.000000"
 preserveAspectRatio="xMidYMid meet">
<metadata>
Created by potrace 1.11, written by Peter Selinger 2001-2013
</metadata>
<g transform="translate(0.000000,604.000000) scale(0.100000,-0.100000)"
fill="#000000" stroke="none">
<path d="M2918 6035 c-2 -3 -22 -7 -44 -9 -144 -15 -352 -124 -508 -266 -124
-112 -280 -325 -394 -535 -62 -116 -58 -113 -127 -100 -209 37 -502 52 -670
32 -479 -55 -788 -296 -872 -681 -17 -76 -22 -265 -10 -355 41 -303 206 -668
454 -1009 46 -62 83 -115 83 -117 0 -2 -25 -42 -55 -89 -72 -110 -187 -321
-227 -416 -41 -97 -97 -265 -104 -310 -3 -19 -8 -38 -10 -42 -3 -4 -7 -26 -10
-50 -3 -24 -10 -63 -14 -88 -12 -62 -5 -284 10 -345 59 -239 171 -404 360
-529 101 -67 258 -132 378 -156 26 -5 58 -12 72 -15 61 -13 167 -20 320 -20
153 0 325 11 342 21 4 3 30 -40 57 -95 105 -210 227 -386 366 -527 180 -182
349 -281 546 -319 73 -13 236 -14 309 0 95 18 227 76 340 150 173 113 373 349
518 610 18 33 48 91 65 128 l32 69 45 -7 c153 -21 426 -27 560 -13 395 41 681
220 816 512 55 119 73 225 69 391 -2 77 -6 156 -10 175 -18 103 -77 303 -112
380 -83 184 -149 305 -239 443 l-65 99 54 71 c54 72 152 215 173 252 182 318
259 500 302 711 28 136 32 174 33 284 0 243 -81 452 -240 611 -123 123 -282
211 -466 258 -167 42 -246 50 -485 46 -118 -2 -231 -6 -250 -10 -74 -14 -214
-35 -216 -32 -1 1 -13 22 -27 47 -13 25 -39 72 -57 105 -32 57 -112 183 -137
215 -105 133 -143 177 -202 232 -154 146 -302 232 -476 275 -56 14 -267 28
-277 18z m204 -239 c249 -48 502 -278 701 -638 42 -75 42 -75 25 -75 -54 0
-528 -168 -713 -253 -38 -17 -92 -42 -119 -54 l-50 -23 -90 42 c-177 83 -460
188 -631 235 -44 12 -84 26 -89 30 -18 17 176 328 263 423 59 65 124 127 161
155 19 15 43 35 54 44 10 9 55 34 100 56 143 69 248 85 388 58z m1627 -841
c394 -29 651 -191 739 -465 38 -119 44 -271 17 -410 -2 -14 -7 -38 -11 -55
-20 -106 -110 -340 -171 -448 -18 -33 -33 -61 -33 -63 0 -12 -176 -284 -226
-349 -17 -23 -2 -35 -118 100 -105 123 -144 164 -308 326 -125 123 -168 172
-168 190 0 13 -7 69 -16 124 -9 55 -17 109 -19 120 -7 46 -35 185 -50 250 -9
39 -18 77 -20 85 -25 114 -86 319 -138 462 -20 54 -33 99 -29 102 6 3 52 10
137 21 17 2 73 7 125 10 52 4 96 8 97 9 3 2 109 -2 192 -9z m-3119 -29 c14 -3
41 -7 60 -10 116 -14 131 -18 125 -35 -14 -34 -113 -339 -129 -396 -20 -75
-72 -298 -80 -345 -3 -19 -13 -73 -21 -120 -8 -47 -18 -107 -21 -135 -3 -27
-7 -58 -10 -67 -3 -9 -85 -97 -182 -195 -194 -195 -236 -239 -331 -356 -36
-43 -68 -74 -71 -70 -4 4 -33 44 -64 88 -30 44 -59 85 -63 91 -9 11 -17 25
-86 144 -109 186 -190 389 -224 560 -26 134 -26 276 1 379 70 261 298 426 649
467 29 4 54 8 55 9 6 5 365 -3 392 -9z m2356 -119 c54 -139 132 -386 148 -467
2 -14 14 -63 25 -110 20 -84 26 -112 37 -179 3 -18 7 -42 9 -52 4 -20 -10 -26
-20 -9 -7 11 -207 162 -294 223 -218 150 -405 269 -566 357 -106 58 -110 49
53 114 144 57 347 127 467 161 33 9 65 19 70 20 33 11 50 -2 71 -58z m-1672
-38 c136 -45 386 -141 386 -149 0 -3 -48 -34 -107 -68 -147 -86 -129 -75 -308
-191 -145 -95 -410 -285 -444 -318 -7 -8 -15 -12 -17 -10 -6 6 32 183 73 342
30 117 101 342 142 447 l10 27 72 -21 c40 -11 127 -38 193 -59z m871 -385 c24
-17 25 -17 -55 0 -119 24 -261 17 -383 -20 -42 -12 -3 13 111 74 l113 59 97
-50 c53 -27 106 -56 117 -63z m-735 -197 c-84 -75 -171 -217 -209 -342 -31
-99 -38 -248 -16 -355 9 -47 18 -91 18 -98 2 -10 -16 -14 -69 -14 -86 0 -158
-12 -244 -40 -61 -20 -143 -59 -164 -79 -17 -16 -38 -10 -32 9 2 9 7 67 11
127 14 248 20 287 48 311 153 132 354 285 547 418 128 87 154 102 110 63z
m1200 -86 c14 -9 30 -20 35 -24 6 -4 62 -45 126 -90 190 -135 435 -332 443
-357 11 -34 25 -226 31 -430 l5 -155 -43 45 c-138 148 -301 232 -495 255 -25
3 -47 7 -49 9 -2 2 1 16 7 32 43 111 49 308 15 439 -25 96 -98 233 -162 304
l-58 65 60 -39 c33 -21 71 -45 85 -54z m-2136 -683 c-2 -13 -7 -120 -10 -238
-3 -118 -9 -219 -13 -225 -25 -32 -72 -186 -73 -238 -1 -30 -5 -27 -107 79
-115 118 -181 196 -181 210 0 11 117 155 193 238 126 137 183 196 189 196 4 0
5 -10 2 -22z m3096 -123 c41 -44 81 -86 88 -94 7 -7 46 -52 85 -100 40 -47 74
-88 78 -91 3 -3 13 -16 22 -29 16 -24 15 -26 -36 -84 -64 -75 -332 -347 -340
-347 -4 0 -3 42 1 93 4 50 7 239 7 419 -1 228 3 325 10 320 6 -4 44 -43 85
-87z m-1661 -442 c0 -5 -6 -24 -13 -43 -13 -34 -13 -35 -20 -10 -18 61 -18 60
8 60 14 0 26 -3 25 -7z m-1719 -303 c58 -58 136 -133 172 -167 45 -41 77 -82
98 -125 17 -35 38 -70 45 -78 13 -15 20 -38 29 -95 6 -41 36 -205 41 -230 3
-11 9 -38 14 -60 49 -220 89 -363 149 -533 l29 -82 -26 -7 c-34 -9 -382 -10
-446 -1 -248 35 -402 103 -530 232 -121 123 -169 250 -169 451 0 139 8 202 45
325 52 173 116 315 227 502 l75 128 71 -77 c39 -43 118 -125 176 -183z m3877
108 c34 -57 81 -143 106 -193 40 -81 55 -114 103 -235 13 -32 39 -126 49 -175
41 -193 30 -372 -29 -502 -79 -172 -252 -296 -481 -346 -145 -32 -170 -34
-328 -35 -134 0 -294 12 -304 22 -2 1 15 56 38 121 40 120 87 279 95 325 3 14
12 54 20 90 9 36 18 74 20 85 10 42 33 162 39 205 4 24 8 47 10 50 2 3 6 30
10 60 9 79 10 80 78 134 34 28 161 150 282 272 121 122 222 223 225 223 3 1
33 -45 67 -101z m-2150 -358 c90 -221 288 -395 521 -455 l71 -19 -112 -64
c-110 -63 -378 -202 -389 -202 -26 0 -336 163 -512 268 l-109 65 40 16 c103
41 230 137 308 231 49 60 104 164 126 239 l13 44 9 -29 c4 -16 20 -58 34 -94z
m1233 -355 c-26 -111 -61 -262 -64 -280 -9 -42 -58 -203 -92 -300 -20 -55 -38
-108 -41 -118 -4 -14 -12 -17 -32 -12 -14 4 -33 8 -41 10 -167 36 -595 179
-585 195 3 5 49 32 102 61 187 100 555 333 679 429 21 16 48 37 58 45 26 19
27 17 16 -30z m-2277 -47 c27 -10 72 -24 100 -30 37 -7 89 -35 177 -93 146
-96 357 -221 487 -290 l92 -49 -29 -13 c-17 -6 -76 -28 -133 -48 -56 -20 -111
-40 -122 -45 -11 -4 -45 -15 -75 -24 -30 -8 -82 -23 -115 -32 -33 -10 -64 -19
-70 -20 -5 -1 -49 -11 -97 -22 l-87 -20 -35 97 c-46 127 -97 299 -130 441 -15
63 -31 130 -36 148 -8 29 -7 33 8 27 9 -4 39 -16 65 -27z m1307 -666 c194 -80
517 -185 634 -206 16 -3 30 -7 33 -10 13 -12 -120 -240 -217 -371 -242 -327
-521 -465 -799 -396 -77 19 -175 65 -246 115 -88 62 -209 188 -292 304 -57 79
-174 274 -188 313 -6 16 23 27 107 44 150 30 542 166 748 259 19 9 44 14 55
12 11 -2 85 -31 165 -64z"/>
</g>
</svg>
